<svg
    version="1.0"
    xmlns="http://www.w3.org/2000/svg"
    width="250.000000pt"
    height="300.000000pt"
    viewBox="0 0 433.000000 576.000000"
    preserveAspectRatio="xMidYMid meet"
  >
    <g
      transform="translate(0.000000,576.000000) scale(0.100000,-0.100000)"
      fill="#000000"
      stroke="none"
    >
      <path
        d="M2590 5595 c-8 -2 -49 -9 -90 -15 -234 -38 -485 -163 -628 -315 -123
-129 -203 -270 -231 -410 -17 -82 -18 -86 -89 -162 -148 -160 -227 -287 -282
-451 -70 -208 -78 -471 -19 -614 9 -23 8 -32 -10 -57 -56 -78 -71 -226 -36
-347 39 -136 127 -248 206 -260 l37 -6 21 -85 c89 -352 430 -619 854 -668 l58
-7 -58 -34 c-32 -20 -79 -53 -106 -75 -54 -46 -208 -103 -321 -119 -38 -6 -88
-19 -112 -29 -137 -61 -258 -265 -381 -643 -38 -115 -70 -208 -74 -208 -13 0
-152 296 -184 395 -29 87 -35 120 -31 155 4 25 9 93 12 152 6 99 4 110 -18
160 -14 29 -55 89 -92 133 -55 66 -71 93 -89 153 -23 79 -43 100 -77 82 -34
-18 -54 -69 -52 -133 1 -55 0 -58 -17 -45 -10 7 -58 43 -107 80 -49 37 -124
86 -166 107 l-78 40 -122 0 c-69 -1 -129 -5 -135 -11 -7 -6 -13 -20 -13 -32 0
-12 -9 -30 -21 -40 -15 -12 -19 -24 -14 -39 4 -12 10 -39 14 -59 10 -47 24
-68 117 -175 42 -49 125 -145 185 -214 115 -134 185 -199 287 -268 34 -23 73
-59 87 -79 47 -71 103 -264 185 -637 62 -282 94 -409 116 -460 33 -81 106
-133 200 -142 132 -14 206 60 367 367 38 71 68 118 71 110 3 -8 12 -55 21
-105 13 -74 39 -201 84 -410 5 -21 14 -31 29 -33 12 -2 22 -2 22 1 0 2 -18 87
-40 189 -57 264 -110 586 -117 707 -6 94 -4 105 12 117 14 11 61 14 185 14
l166 0 22 67 c11 36 19 70 16 75 -3 4 -86 8 -186 8 l-180 0 6 28 c4 15 25 88
48 162 22 74 43 144 45 156 6 25 -20 39 -36 21 -24 -29 -141 -463 -141 -524 0
-26 -12 -30 -29 -9 -18 22 -121 63 -188 77 -35 6 -63 15 -63 19 0 16 71 212
106 292 51 116 118 229 169 286 51 57 114 88 207 101 35 5 90 19 122 30 33 12
63 21 67 21 5 0 -5 -28 -21 -62 -29 -61 -39 -133 -24 -173 8 -21 56 -45 89
-45 33 0 69 19 154 81 74 54 95 59 111 29 9 -18 21 -20 101 -20 l91 0 -7 -47
c-4 -27 -26 -102 -50 -168 -55 -152 -111 -350 -125 -439 -12 -75 -1 -394 25
-765 8 -112 15 -210 15 -217 0 -8 10 -14 21 -14 21 0 22 3 15 93 -23 331 -36
601 -37 745 -1 149 2 178 25 265 32 122 91 305 118 366 11 25 25 79 32 119
l11 73 60 -47 c33 -26 84 -58 113 -71 45 -21 57 -23 86 -13 93 30 136 173 91
303 -9 27 -14 51 -12 53 3 3 60 -12 127 -33 101 -31 124 -42 131 -62 7 -18 14
-22 32 -17 103 29 213 11 288 -47 55 -42 105 -132 120 -218 17 -95 6 -339 -20
-459 -20 -92 -32 -140 -35 -140 0 0 -19 7 -41 15 -73 26 -316 14 -485 -24 -24
-5 -46 -9 -47 -7 -2 1 33 110 77 242 44 131 78 245 75 252 -3 8 -12 12 -22 10
-11 -2 -27 -34 -48 -98 l-32 -95 -41 -3 -42 -3 0 80 c0 95 -11 131 -40 131
-26 0 -53 -57 -70 -148 l-13 -62 -81 -1 c-44 0 -99 -3 -120 -7 -38 -7 -40 -9
-57 -69 -9 -34 -14 -64 -11 -67 3 -3 100 -6 215 -6 195 0 209 -1 202 -17 -21
-57 -95 -311 -95 -330 0 -28 25 -52 62 -60 22 -4 27 -10 23 -22 -6 -14 -133
-421 -170 -542 -8 -25 -17 -53 -21 -62 -5 -13 -1 -17 19 -17 29 0 35 12 72
145 35 123 163 517 175 535 7 12 42 16 181 19 101 2 169 -1 166 -6 -30 -48
-279 -619 -291 -665 -6 -25 -4 -28 19 -28 14 0 25 5 25 10 0 16 93 231 97 226
3 -2 -5 -50 -16 -107 -26 -125 -26 -129 -2 -129 16 0 22 11 31 58 70 339 92
430 121 493 18 38 37 69 43 69 31 0 85 53 118 117 69 133 109 289 129 508 35
370 -95 585 -351 585 -41 0 -108 16 -248 60 -185 59 -194 63 -239 108 -27 27
-69 57 -95 67 -68 28 -63 46 25 80 278 107 492 282 599 490 40 79 44 83 82 90
105 16 248 122 310 228 22 37 34 47 71 57 157 44 275 227 275 427 0 163 -66
296 -174 354 l-46 24 0 60 c0 68 -13 160 -36 253 l-16 62 40 45 c48 55 67 117
66 211 -4 201 -114 418 -313 614 -212 210 -447 335 -726 385 -69 13 -316 19
-365 10z m420 -64 c110 -25 202 -60 315 -120 354 -186 625 -546 625 -829 0
-80 -15 -132 -50 -173 l-26 -32 -18 49 c-89 238 -239 379 -416 392 -63 4 -66
5 -90 44 -69 111 -290 221 -526 262 -118 21 -352 21 -475 0 -201 -34 -427
-128 -588 -244 l-83 -61 6 34 c16 84 82 215 160 316 152 197 420 334 751 385
71 11 332 -4 415 -23z m-273 -442 c278 -31 523 -149 596 -288 14 -27 21 -32
41 -27 64 16 203 -34 276 -100 171 -154 290 -593 236 -864 -22 -107 -56 -195
-76 -195 -20 0 -17 22 16 125 23 74 26 102 26 215 0 107 -4 147 -25 226 -86
327 -225 486 -442 506 -58 5 -63 8 -80 40 -62 115 -276 222 -518 257 -496 74
-1006 -146 -1299 -559 -122 -172 -183 -426 -159 -663 6 -55 12 -107 13 -114 2
-7 -8 -14 -23 -16 -22 -3 -27 2 -38 37 -75 252 4 614 187 856 81 108 249 269
353 337 283 187 591 264 916 227z m68 -623 c39 -8 98 -24 132 -34 l62 -19 41
23 c36 21 41 21 35 7 -4 -10 -9 -34 -12 -54 -5 -33 2 -45 69 -135 155 -206
225 -365 248 -569 12 -113 6 -155 -27 -207 -26 -39 -27 -71 -2 -76 9 -2 22 11
32 33 25 53 106 135 152 156 248 108 402 -149 261 -436 -61 -124 -200 -236
-311 -251 -84 -11 -84 -12 -83 -48 3 -76 -156 -274 -303 -379 -139 -99 -320
-174 -508 -212 -126 -26 -335 -17 -455 19 -300 90 -555 328 -620 580 -23 86
-34 188 -48 446 -20 364 -18 419 20 516 126 318 527 595 948 653 90 13 281 6
369 -13z m1208 -608 c114 -119 138 -311 62 -477 -30 -63 -40 -64 -21 -1 21 70
29 179 16 234 -15 69 -56 150 -96 193 -22 23 -34 46 -34 64 0 42 25 37 73 -13z
m-2615 -280 c7 -7 12 -36 12 -66 l0 -54 -31 26 c-36 31 -76 43 -91 28 -13 -13
6 -42 26 -42 17 0 60 -48 80 -88 18 -34 31 -126 40 -284 7 -110 4 -115 -55
-75 -42 28 -90 98 -120 175 -34 85 -34 247 -1 315 13 26 36 54 50 62 33 18 74
19 90 3z m-1094 -1267 c73 -25 173 -92 279 -185 81 -72 107 -84 107 -52 0 21
-145 153 -227 207 -86 56 -82 64 10 18 76 -39 165 -98 233 -155 28 -23 66 -50
86 -59 48 -24 76 -82 81 -170 6 -96 60 -206 88 -178 6 6 -1 32 -18 69 -22 47
-28 74 -28 129 0 61 -5 80 -38 144 -40 79 -47 136 -23 180 13 23 14 21 34 -45
17 -55 35 -86 91 -154 39 -46 78 -99 87 -118 25 -53 29 -166 9 -244 -16 -65
-16 -70 4 -147 30 -116 64 -196 198 -466 133 -269 178 -388 195 -517 10 -73
15 -88 30 -88 10 0 18 8 19 18 5 93 -22 208 -84 362 l-44 106 21 42 c11 23 26
42 33 42 23 0 116 -50 161 -88 61 -49 122 -129 122 -159 0 -64 -222 -461 -285
-511 -71 -56 -176 -49 -245 17 -48 45 -69 113 -145 457 -106 477 -160 660
-216 727 -17 21 -54 53 -83 71 -85 55 -170 131 -247 223 -41 49 -105 124 -144
168 -120 136 -168 195 -162 201 11 11 101 -41 153 -89 29 -26 69 -72 89 -102
20 -30 42 -55 49 -55 24 0 25 26 4 61 -59 98 -164 191 -255 225 -43 16 -72 38
-73 55 0 14 88 -14 154 -49 47 -25 100 -66 160 -124 49 -49 96 -88 103 -88 32
0 9 45 -59 113 -87 86 -177 148 -259 178 -33 12 -59 28 -59 35 0 19 31 17 94
-5z m2396 -204 c-19 -93 -66 -147 -143 -168 -23 -6 -49 -17 -58 -25 -13 -12
-20 -9 -48 17 -30 27 -33 33 -26 67 4 20 11 73 14 117 l6 80 85 11 c47 7 103
16 125 21 l40 9 8 -40 c4 -23 3 -63 -3 -89z m112 44 c107 -68 182 -242 148
-347 -15 -48 -57 -94 -85 -94 -24 0 -80 34 -177 107 -75 57 -98 68 -134 59
-16 -4 -24 -13 -24 -28 0 -16 -3 -19 -11 -11 -19 19 7 48 55 61 92 24 166 132
166 239 0 24 4 43 8 43 4 0 29 -13 54 -29z m-418 -43 c-3 -24 -9 -59 -13 -78
-11 -62 -2 -97 35 -132 19 -18 34 -37 34 -43 0 -5 -5 -2 -11 8 -13 23 -65 22
-105 -2 -17 -11 -59 -40 -94 -65 -75 -55 -123 -62 -142 -21 -26 56 55 207 153
287 44 36 127 88 142 88 4 0 4 -19 1 -42z m586 -693 c0 -70 -2 -75 -21 -75
-19 0 -21 4 -15 38 10 55 26 112 31 112 3 0 5 -34 5 -75z m109 -112 c0 -5 -6
-22 -12 -40 l-12 -32 -197 -5 c-109 -3 -198 -1 -198 3 0 5 3 22 6 40 l6 31
182 3 c99 1 191 3 204 5 12 1 22 -1 21 -5z m-979 -30 c0 -10 -6 -29 -13 -42
-12 -24 -15 -24 -175 -29 -133 -3 -161 -1 -158 10 2 7 7 25 10 40 l6 27 133 4
c72 1 147 4 165 5 25 2 32 -2 32 -15z m-585 -85 c47 -12 121 -48 152 -74 18
-15 23 -34 29 -99 l7 -79 -52 46 c-59 53 -175 115 -233 124 -40 7 -42 14 -17
81 9 24 21 24 114 1z m2035 -151 c40 -11 45 -15 43 -38 -1 -15 -12 -48 -25
-75 -22 -47 -24 -49 -58 -44 -55 8 -336 6 -432 -3 l-87 -8 18 63 18 63 99 17
c207 37 346 45 424 25z"
      />
      <path
        d="M2655 4073 c-110 -17 -204 -67 -178 -94 11 -11 21 -9 57 8 106 52
249 55 355 8 46 -21 65 -25 73 -17 18 18 -16 48 -79 72 -55 20 -172 32 -228
23z"
      />
      <path
        d="M1765 3992 c-83 -8 -173 -58 -148 -83 6 -6 27 -1 64 16 64 29 161 34
229 10 44 -16 60 -13 60 10 0 25 -129 55 -205 47z"
      />
      <path
        d="M2695 3829 c-67 -9 -122 -38 -172 -92 -47 -51 -62 -85 -42 -98 21
-13 25 -12 52 30 50 75 120 111 216 111 63 0 124 -24 158 -61 32 -36 63 -111
71 -176 6 -49 10 -58 27 -58 17 0 21 8 25 54 5 52 7 55 40 66 24 8 35 18 35
31 0 20 -18 23 -65 10 -22 -6 -28 -2 -43 28 -55 117 -166 174 -302 155z"
      />
      <path
        d="M1767 3779 c-21 -5 -51 -15 -66 -24 -43 -22 -98 -91 -116 -146 -15
-43 -19 -48 -35 -39 -26 14 -50 12 -50 -4 0 -7 14 -19 30 -26 26 -11 30 -18
30 -50 0 -24 5 -40 14 -43 22 -9 33 12 39 74 20 209 246 294 359 135 31 -45
51 -56 63 -36 9 14 -21 65 -62 105 -21 21 -57 41 -86 50 -56 17 -65 17 -120 4z"
      />
      <path
        d="M2679 3687 c-124 -66 -139 -305 -24 -393 87 -66 195 -28 243 86 16
37 21 157 9 178 -6 9 -14 8 -33 -4 -22 -15 -26 -15 -49 0 -41 27 -28 86 18 86
30 0 14 23 -33 48 -56 28 -76 28 -131 -1z"
      />
      <path
        d="M1790 3642 c-56 -30 -85 -92 -85 -182 0 -64 4 -82 27 -121 62 -106
178 -98 229 15 22 49 28 189 7 168 -17 -17 -53 -15 -68 3 -17 20 -5 62 21 70
17 6 18 9 7 22 -14 17 -69 43 -90 43 -7 0 -29 -8 -48 -18z"
      />
      <path
        d="M3593 3489 c-52 -25 -84 -63 -123 -139 -40 -79 -57 -149 -40 -160 22
-13 38 -1 44 35 10 52 74 171 107 199 39 33 89 46 135 36 42 -10 54 -6 54 15
0 39 -110 48 -177 14z"
      />
      <path
        d="M2156 3102 c-6 -11 12 -71 25 -87 6 -6 14 -4 23 5 12 12 12 22 3 50
-12 34 -39 51 -51 32z"
      />
      <path
        d="M2588 2909 c-140 -37 -410 -48 -540 -22 l-31 6 6 -59 c15 -140 90
-315 170 -397 65 -67 123 -91 206 -85 132 9 225 134 267 354 16 88 16 216 -1
219 -5 1 -40 -6 -77 -16z m38 -122 c11 -10 -18 -146 -47 -222 -29 -77 -109
-160 -164 -171 -99 -18 -207 59 -272 194 -34 71 -34 74 -17 93 26 29 135 80
217 100 74 19 267 23 283 6z"
      />
      <path
        d="M554 1869 c-9 -15 3 -23 62 -44 87 -30 155 -84 188 -148 20 -39 33
-54 43 -50 11 4 13 15 9 37 -14 71 -96 148 -205 193 -62 25 -87 28 -97 12z"
      />
      <path
        d="M2425 1755 c-31 -30 -32 -66 -2 -101 57 -66 154 -7 126 76 -20 55
-82 68 -124 25z m79 -18 c38 -27 -2 -95 -41 -71 -25 16 -29 55 -7 71 10 7 21
13 24 13 3 0 14 -6 24 -13z"
      />
    </g>
  </svg>